<svg width="46" height="46" fill="currentColor" viewBox="0 0 24 24" xmlns="http://www.w3.org/2000/svg">
  <path d="M15.36 4.2v1.2h4.2a.6.6 0 0 1 0 1.2h-.645L17.89 19.392a2.4 2.4 0 0 1-2.393 2.208H8.022a2.4 2.4 0 0 1-2.392-2.208L4.606 6.6H3.96a.6.6 0 0 1 0-1.2h4.2V4.2a1.8 1.8 0 0 1 1.8-1.8h3.6a1.8 1.8 0 0 1 1.8 1.8Zm-6 0v1.2h4.8V4.2a.6.6 0 0 0-.6-.6h-3.6a.6.6 0 0 0-.6.6Zm-1.8 4.235.6 10.2a.6.6 0 1 0 1.198-.072l-.6-10.2a.6.6 0 1 0-1.198.072Zm7.836-.633a.6.6 0 0 0-.633.564l-.6 10.2a.6.6 0 0 0 1.197.07l.6-10.2a.6.6 0 0 0-.564-.634ZM11.76 7.8a.6.6 0 0 0-.6.6v10.2a.6.6 0 1 0 1.2 0V8.4a.6.6 0 0 0-.6-.6Z"></path>
</svg>